<svg xmlns="http://www.w3.org/2000/svg" width="25" height="41" viewBox="0 0 25 41">
  <path fill="#0000ff" stroke="#ffffff" stroke-width="1" d="M12.5,1 C6.149,1 1,6.149 1,12.5 C1,18.851 6.149,24 12.5,24 C18.851,24 24,18.851 24,12.5 C24,6.149 18.851,1 12.5,1 Z M12.5,40 L6,24 L19,24 L12.5,40 Z" />
  <g transform="translate(5, 5) scale(0.07)">
    <!-- Ground line -->
    <path d="M0,150 L240,150" stroke="#ffff00" stroke-width="5" fill="none"/>
    
    <!-- Truck body -->
    <path d="M40,60 L140,60 L140,40 C140,40 160,40 175,40 C190,40 190,60 190,60 L230,60 L260,110 L260,130 L230,130 M40,60 L40,130" stroke="#ffff00" stroke-width="5" fill="none"/>
    
    <!-- Wheels -->
    <circle cx="70" cy="130" r="15" stroke="#ffff00" stroke-width="5" fill="none"/>
    <circle cx="200" cy="130" r="15" stroke="#ffff00" stroke-width="5" fill="none"/>
    
    <!-- Motion lines -->
    <path d="M15,65 L40,65" stroke="#ffff00" stroke-width="5" fill="none"/>
    <path d="M10,80 L40,80" stroke="#ffff00" stroke-width="5" fill="none"/>
    <path d="M5,95 L40,95" stroke="#ffff00" stroke-width="5" fill="none"/>
    <path d="M0,110 L40,110" stroke="#ffff00" stroke-width="5" fill="none"/>
  </g>
</svg>